<?xml version="1.0" encoding="UTF-8" standalone="no"?><!DOCTYPE svg PUBLIC "-//W3C//DTD SVG 1.1//EN" "http://www.w3.org/Graphics/SVG/1.1/DTD/svg11.dtd"><svg width="100%" height="100%" viewBox="0 0 312 240" version="1.1" xmlns="http://www.w3.org/2000/svg" xmlns:xlink="http://www.w3.org/1999/xlink" xml:space="preserve" xmlns:serif="http://www.serif.com/" style="fill-rule:evenodd;clip-rule:evenodd;stroke-linejoin:round;stroke-miterlimit:2;"><g><g><rect x="170.18" y="0" width="28.364" height="141.819" style="fill:#ed1c24;"/><rect x="0.007" y="113.455" width="141.818" height="28.364" style="fill:#ed1c24;"/><rect x="0" y="56.728" width="141.817" height="28.363" style="fill:#ed1c24;"/><rect x="0" y="0" width="141.817" height="28.363" style="fill:#ed1c24;"/><path d="M312,0l-85.091,0l0,28.364l28.364,0l-0,113.454l28.363,-0l-0,-113.454l28.364,0l-0,-28.364Z" style="fill:#ed1c24;fill-rule:nonzero;"/></g><g><path d="M13.479,189.494l-5.704,0c-0.541,3.41 -3.441,5.29 -7.775,5.29l0,-3.059c2.964,-0 4.429,-1.466 4.429,-4.525l0,-12.173l3.569,-0l0,10.834l5.481,0l0,3.633Zm-5.513,-17.399l-3.505,0l0,-3.537l3.505,0l0,3.537Z" style="fill:#fff;fill-rule:nonzero;"/><path d="M26.991,189.494l-14.723,0l0,-3.633l3.314,0c1.052,0 1.753,-0.35 2.135,-1.083c0.255,-0.478 0.383,-1.307 0.383,-2.422l-0,-7.329l3.537,-0l0,7.138c0,1.88 -0.255,3.091 -0.765,3.696l6.119,0l-0,3.633Zm-5.354,-17.399l-3.505,0l-0,-3.537l3.505,0l0,3.537Z" style="fill:#fff;fill-rule:nonzero;"/><path d="M26.098,185.861l2.613,0c1.817,0 2.709,-1.242 2.709,-3.76l-0,-7.074l3.601,-0l-0,6.947c-0,1.88 -0.191,3.091 -0.574,3.696l0,0.191l3.314,0c1.817,0 2.709,-1.179 2.709,-3.537l-0,-7.297l3.601,-0l-0,6.947c-0,2.071 -0.255,3.377 -0.733,3.887l3.473,0c1.817,0 2.709,-1.179 2.709,-3.505l-0,-7.329l3.601,-0l-0,6.883c-0,4.589 -2.55,7.584 -6.182,7.584l-20.841,0l0,-3.633Zm14.404,-18.769l-0,-3.569l3.505,0l-0,3.569l-3.505,0Zm2.995,5.003l0,-3.537l3.473,0l0,3.537l-3.473,0Zm-6.023,0l0,-3.537l3.474,0l-0,3.537l-3.474,0Z" style="fill:#fff;fill-rule:nonzero;"/><path d="M74.439,189.494l-4.334,0c-0.478,3.505 -2.804,5.258 -6.947,5.258l0,-2.804c1.849,-0 3.028,-0.765 3.538,-2.454l-3.41,0c-3.856,0 -6.979,-3.218 -6.979,-7.425c0,-4.206 3.091,-7.074 7.138,-7.074c3.888,-0 6.628,2.995 6.628,7.17l0,3.696l4.366,0l-0,3.633Zm-7.935,-3.633l0,-4.365c-0.191,-1.88 -1.274,-3.219 -3.123,-3.219c-2.103,0 -3.441,1.466 -3.441,3.601c-0,2.199 1.498,3.983 3.41,3.983l3.154,0Z" style="fill:#fff;fill-rule:nonzero;"/><path d="M88.237,189.494l-14.69,0l-0,-3.633l3.409,0c1.052,0 1.785,-0.35 2.167,-1.083c0.255,-0.478 0.383,-1.307 0.383,-2.422l-0,-7.329l3.537,-0l-0,7.138c-0,1.88 -0.255,3.091 -0.797,3.696l5.991,0l-0,3.633Zm-5.322,6.979l-3.505,-0l0,-3.569l3.505,-0l0,3.569Zm-6.022,-0l-3.506,-0l0,-3.569l3.506,-0l-0,3.569Z" style="fill:#fff;fill-rule:nonzero;"/><path d="M96.427,183.726c-0,3.856 -1.785,5.768 -5.354,5.768l-3.76,0l-0,-3.633l3.027,0c1.179,0 1.912,-0.35 2.263,-1.051c0.159,-0.383 0.255,-1.147 0.255,-2.295l-0,-13.575l3.569,0l-0,14.786Z" style="fill:#fff;fill-rule:nonzero;"/><path d="M117.554,189.494l-4.334,0c-0.478,3.505 -2.804,5.258 -6.947,5.258l0,-2.804c1.848,-0 3.027,-0.765 3.537,-2.454l-3.409,0c-3.856,0 -6.979,-3.218 -6.979,-7.425c-0,-4.206 3.091,-7.074 7.138,-7.074c3.888,-0 6.628,2.995 6.628,7.17l0,3.696l4.366,0l-0,3.633Zm-7.935,-3.633l0,-4.365c-0.191,-1.88 -1.275,-3.219 -3.123,-3.219c-2.103,0 -3.441,1.466 -3.441,3.601c-0,2.199 1.497,3.983 3.409,3.983l3.155,0Z" style="fill:#fff;fill-rule:nonzero;"/><path d="M116.821,185.861l2.613,0c1.816,0 2.708,-1.242 2.708,-3.76l0,-7.074l3.601,-0l0,6.947c0,1.88 -0.191,3.091 -0.573,3.696l-0,0.191l3.314,0c1.816,0 2.708,-1.179 2.708,-3.537l0,-7.297l3.601,-0l0,6.947c0,2.071 -0.255,3.377 -0.733,3.887l3.474,0c1.816,0 2.708,-1.179 2.708,-3.505l0,-7.329l3.601,-0l0,6.883c0,4.589 -2.549,7.584 -6.182,7.584l-20.84,0l-0,-3.633Z" style="fill:#fff;fill-rule:nonzero;"/><path d="M181.668,185.861l0,3.633c-3.919,0 -5.035,-0.605 -6.501,-2.804c-1.019,4.971 -5.289,8.094 -10.484,8.094c-6.118,-0 -10.961,-4.78 -10.961,-11.058l-0,-3.569l3.569,0l-0,3.155c-0,4.939 2.868,8.03 7.488,8.03c4.143,0 7.266,-2.74 7.266,-5.991c-0,-1.975 -1.18,-3.377 -3.219,-3.377c-0.191,-0 -0.382,-0 -0.574,0.032l0,-3.251l1.403,0c2.804,0 4.907,1.275 6.309,3.792c1.307,2.39 2.549,3.314 4.366,3.314l1.338,0Zm-12.205,15.965l-3.505,0l0,-3.537l3.505,0l0,3.537Zm-6.022,0l-3.506,0l0,-3.537l3.506,0l-0,3.537Z" style="fill:#fff;fill-rule:nonzero;"/><path d="M190.049,183.726c-0,3.856 -1.785,5.768 -5.322,5.768l-3.76,0l0,-3.633l2.995,0c1.179,0 1.912,-0.35 2.263,-1.051c0.159,-0.383 0.255,-1.147 0.255,-2.295l-0,-7.488l3.569,-0l-0,8.699Zm-6.118,-11.631l-3.506,0l0,-3.537l3.506,0l-0,3.537Zm6.022,0l-3.505,0l-0,-3.537l3.505,0l0,3.537Z" style="fill:#fff;fill-rule:nonzero;"/><path d="M221.883,183.886c-0,3.091 -1.052,5.704 -3.187,7.775c-2.103,2.071 -4.684,3.123 -7.775,3.123l-0.223,-0c-3.091,-0 -5.704,-1.052 -7.807,-3.123c-2.103,-2.071 -3.155,-4.684 -3.155,-7.775l0,-3.538l3.569,0l0,3.155c0,2.358 0.637,4.238 1.912,5.64c1.307,1.498 3.187,2.231 5.577,2.231c4.62,0 7.138,-2.485 7.52,-7.425l-8.413,0c0,-6.755 3.888,-10.452 10.739,-10.452l0,3.314c-1.752,0 -3.091,0.223 -4.015,0.67c-1.115,0.541 -2.007,1.561 -2.613,2.995l7.871,-0l-0,3.41Zm-6.405,17.94l-3.505,0l-0,-3.537l3.505,0l-0,3.537Zm-6.023,0l-3.505,0l-0,-3.537l3.505,0l0,3.537Z" style="fill:#fff;fill-rule:nonzero;"/><rect x="225.165" y="168.909" width="3.537" height="20.585" style="fill:#fff;fill-rule:nonzero;"/><path d="M246.707,175.027l-0,11.631c-0,5.736 -2.518,8.126 -7.999,8.126l0,-3.059c2.964,-0 4.43,-1.466 4.43,-4.525l-0,-12.173l3.569,-0Z" style="fill:#fff;fill-rule:nonzero;"/><path d="M259.389,189.494l-4.174,0c-1.721,0 -3.027,-0.542 -3.952,-1.657c-0.86,-1.02 -1.274,-2.39 -1.274,-4.143l-0,-14.754l3.537,0l-0,13.32c-0,1.562 0.35,2.582 1.02,3.06c0.478,0.35 1.402,0.541 2.74,0.541l2.103,0l0,3.633Z" style="fill:#fff;fill-rule:nonzero;"/><path d="M283.321,189.494l-25.111,0l0,-3.633l17.495,0c-0,-1.975 -0.574,-3.664 -1.721,-5.066c-1.339,-1.626 -3.187,-2.422 -5.513,-2.422l-7.361,-0l6.278,-9.433l4.238,0l-4.302,6.087l1.561,-0c2.199,-0 4.143,0.51 5.832,1.529c2.9,1.785 4.493,4.876 4.78,9.305l3.824,0l-0,3.633Z" style="fill:#fff;fill-rule:nonzero;"/><path d="M285.679,172.063l-3.506,0l0,-3.537l3.506,0l-0,3.537Zm6.054,0l-3.505,0l-0,-3.537l3.505,0l0,3.537Zm5.354,17.431l-14.722,0l-0,-3.633l3.314,0c1.051,0 1.752,-0.35 2.135,-1.083c0.255,-0.478 0.382,-1.307 0.382,-2.422l0,-7.329l3.537,-0l0,7.138c0,1.88 -0.255,3.091 -0.765,3.696l6.119,0l-0,3.633Z" style="fill:#fff;fill-rule:nonzero;"/><path d="M305.117,183.726c-0,3.856 -1.785,5.768 -5.322,5.768l-3.441,0l-0,-3.633l2.708,0c1.179,0 1.912,-0.35 2.263,-1.051c0.159,-0.383 0.255,-1.147 0.255,-2.295l-0,-7.488l3.537,-0l-0,8.699Zm-0.032,12.747l-3.473,-0l-0,-3.569l3.473,-0l0,3.569Z" style="fill:#fff;fill-rule:nonzero;"/><rect x="308.463" y="168.909" width="3.537" height="20.585" style="fill:#fff;fill-rule:nonzero;"/></g><g><path d="M13.422,232.535l-13.422,0l0,-23.305l13.422,0l-0,4.049l-8.48,0l-0,5.117l7.89,0l-0,4.049l-7.89,-0l-0,6.009l8.48,0l-0,4.081Z" style="fill:#fff;fill-rule:nonzero;"/><path d="M27.688,232.854c-2.093,-0 -3.735,-0.76 -4.925,-2.28l-0.255,0c0.17,1.488 0.255,2.349 0.255,2.583l-0,7.221l-4.862,-0l-0,-25.664l3.953,-0l0.686,2.311l0.223,0c1.137,-1.764 2.821,-2.646 5.053,-2.646c2.104,0 3.751,0.813 4.941,2.439c1.191,1.626 1.786,3.884 1.786,6.775c-0,1.902 -0.279,3.554 -0.837,4.957c-0.558,1.403 -1.352,2.471 -2.383,3.204c-1.031,0.733 -2.243,1.1 -3.635,1.1Zm-1.434,-14.585c-1.201,-0 -2.078,0.369 -2.63,1.107c-0.553,0.739 -0.84,1.958 -0.861,3.659l-0,0.526c-0,1.913 0.284,3.283 0.853,4.112c0.568,0.829 1.469,1.244 2.701,1.244c2.179,-0 3.268,-1.796 3.268,-5.388c0,-1.754 -0.268,-3.069 -0.805,-3.945c-0.536,-0.877 -1.379,-1.315 -2.526,-1.315Z" style="fill:#fff;fill-rule:nonzero;"/><path d="M46.068,228.98c0.85,0 1.87,-0.186 3.06,-0.557l0,3.618c-1.211,0.542 -2.699,0.813 -4.463,0.813c-1.945,-0 -3.361,-0.492 -4.248,-1.475c-0.888,-0.983 -1.331,-2.457 -1.331,-4.423l-0,-8.592l-2.328,0l0,-2.056l2.678,-1.626l1.403,-3.762l3.108,0l0,3.794l4.99,-0l-0,3.65l-4.99,0l0,8.592c0,0.691 0.194,1.201 0.582,1.53c0.388,0.33 0.901,0.494 1.539,0.494Z" style="fill:#fff;fill-rule:nonzero;"/><path d="M52.523,210.107c0,-1.583 0.882,-2.375 2.646,-2.375c1.765,-0 2.647,0.792 2.647,2.375c-0,0.755 -0.221,1.342 -0.662,1.761c-0.441,0.42 -1.103,0.63 -1.985,0.63c-1.764,0 -2.646,-0.797 -2.646,-2.391Zm5.069,22.428l-4.861,0l-0,-17.821l4.861,-0l0,17.821Z" style="fill:#fff;fill-rule:nonzero;"/><path d="M67.364,222.843l2.12,-2.709l4.989,-5.42l5.484,-0l-7.078,7.731l7.508,10.09l-5.611,0l-5.133,-7.221l-2.088,1.674l0,5.547l-4.862,0l0,-24.803l4.862,-0l0,11.063l-0.255,4.048l0.064,0Z" style="fill:#fff;fill-rule:nonzero;"/><path d="M94.255,232.535l-0.94,-2.423l-0.128,0c-0.818,1.031 -1.66,1.746 -2.526,2.144c-0.866,0.399 -1.996,0.598 -3.388,0.598c-1.711,-0 -3.058,-0.489 -4.041,-1.467c-0.983,-0.977 -1.474,-2.369 -1.474,-4.176c-0,-1.892 0.661,-3.286 1.985,-4.184c1.323,-0.898 3.318,-1.395 5.985,-1.491l3.093,-0.095l-0,-0.781c-0,-1.807 -0.925,-2.71 -2.774,-2.71c-1.424,-0 -3.098,0.43 -5.021,1.291l-1.61,-3.284c2.051,-1.073 4.325,-1.61 6.822,-1.61c2.391,0 4.224,0.521 5.5,1.562c1.275,1.042 1.912,2.625 1.912,4.751l0,11.875l-3.395,0Zm-1.434,-8.257l-1.881,0.064c-1.414,0.042 -2.466,0.297 -3.157,0.765c-0.69,0.468 -1.036,1.18 -1.036,2.136c0,1.371 0.787,2.056 2.359,2.056c1.127,0 2.028,-0.324 2.702,-0.972c0.675,-0.648 1.013,-1.509 1.013,-2.582l-0,-1.467Z" style="fill:#fff;fill-rule:nonzero;"/><path d="M112.602,214.379c0.659,0 1.207,0.048 1.642,0.144l-0.366,4.558c-0.394,-0.106 -0.872,-0.159 -1.435,-0.159c-1.551,0 -2.76,0.399 -3.626,1.196c-0.866,0.797 -1.3,1.912 -1.3,3.347l0,9.07l-4.861,0l-0,-17.821l3.682,-0l0.717,2.997l0.239,-0c0.553,-0.999 1.299,-1.804 2.24,-2.415c0.94,-0.611 1.963,-0.917 3.068,-0.917Z" style="fill:#fff;fill-rule:nonzero;"/><rect x="126.343" y="209.23" width="4.942" height="23.305" style="fill:#fff;fill-rule:nonzero;"/><path d="M146.141,232.535l-4.942,0l0,-19.192l-6.328,-0l0,-4.113l17.598,0l0,4.113l-6.328,-0l-0,19.192Z" style="fill:#fff;fill-rule:nonzero;"/><path d="M178.293,226.063c-0,2.104 -0.758,3.762 -2.272,4.974c-1.514,1.211 -3.621,1.817 -6.32,1.817c-2.487,-0 -4.687,-0.468 -6.6,-1.403l0,-4.591c1.573,0.702 2.904,1.196 3.993,1.483c1.09,0.287 2.086,0.43 2.989,0.43c1.084,0 1.916,-0.207 2.495,-0.621c0.579,-0.415 0.869,-1.031 0.869,-1.85c-0,-0.457 -0.128,-0.863 -0.383,-1.219c-0.255,-0.356 -0.63,-0.699 -1.124,-1.028c-0.494,-0.33 -1.501,-0.856 -3.02,-1.578c-1.424,-0.67 -2.492,-1.313 -3.204,-1.929c-0.712,-0.616 -1.281,-1.334 -1.706,-2.152c-0.425,-0.818 -0.638,-1.775 -0.638,-2.869c0,-2.062 0.699,-3.682 2.097,-4.862c1.397,-1.18 3.328,-1.769 5.794,-1.769c1.211,-0 2.367,0.143 3.467,0.43c1.1,0.287 2.25,0.691 3.451,1.211l-1.594,3.842c-1.243,-0.51 -2.272,-0.866 -3.085,-1.068c-0.812,-0.202 -1.612,-0.303 -2.399,-0.303c-0.935,0 -1.652,0.218 -2.151,0.654c-0.5,0.435 -0.75,1.004 -0.75,1.705c0,0.436 0.101,0.816 0.303,1.14c0.202,0.324 0.524,0.638 0.965,0.941c0.441,0.302 1.485,0.847 3.132,1.633c2.178,1.042 3.671,2.086 4.479,3.133c0.808,1.047 1.212,2.33 1.212,3.849Z" style="fill:#fff;fill-rule:nonzero;"/><path d="M186.008,223.593c-0,1.764 0.289,3.097 0.868,4.001c0.58,0.903 1.523,1.355 2.83,1.355c1.296,-0 2.229,-0.449 2.797,-1.347c0.569,-0.898 0.853,-2.235 0.853,-4.009c0,-1.764 -0.287,-3.088 -0.861,-3.97c-0.573,-0.882 -1.514,-1.323 -2.821,-1.323c-1.297,0 -2.232,0.439 -2.806,1.315c-0.573,0.877 -0.86,2.203 -0.86,3.978Zm12.322,-0c-0,2.901 -0.766,5.17 -2.296,6.806c-1.53,1.637 -3.661,2.455 -6.392,2.455c-1.711,-0 -3.22,-0.375 -4.527,-1.124c-1.307,-0.749 -2.311,-1.825 -3.013,-3.228c-0.701,-1.403 -1.052,-3.039 -1.052,-4.909c0,-2.912 0.76,-5.176 2.28,-6.791c1.519,-1.615 3.655,-2.423 6.408,-2.423c1.711,0 3.22,0.372 4.527,1.116c1.307,0.744 2.311,1.812 3.012,3.204c0.702,1.392 1.053,3.023 1.053,4.894Z" style="fill:#fff;fill-rule:nonzero;"/><rect x="202.346" y="207.732" width="4.862" height="24.803" style="fill:#fff;fill-rule:nonzero;"/><path d="M224.934,232.535l-0.654,-2.279l-0.255,-0c-0.52,0.829 -1.259,1.469 -2.215,1.92c-0.957,0.452 -2.046,0.678 -3.268,0.678c-2.094,-0 -3.672,-0.561 -4.734,-1.682c-1.063,-1.121 -1.594,-2.734 -1.594,-4.838l-0,-11.62l4.861,-0l0,10.409c0,1.286 0.229,2.25 0.686,2.893c0.457,0.643 1.185,0.964 2.184,0.964c1.36,0 2.343,-0.454 2.949,-1.362c0.605,-0.909 0.908,-2.415 0.908,-4.52l0,-8.384l4.862,-0l-0,17.821l-3.73,0Z" style="fill:#fff;fill-rule:nonzero;"/><path d="M241.273,228.98c0.85,0 1.87,-0.186 3.06,-0.557l0,3.618c-1.211,0.542 -2.699,0.813 -4.463,0.813c-1.945,-0 -3.361,-0.492 -4.248,-1.475c-0.887,-0.983 -1.331,-2.457 -1.331,-4.423l-0,-8.592l-2.327,0l-0,-2.056l2.678,-1.626l1.402,-3.762l3.109,0l-0,3.794l4.989,-0l0,3.65l-4.989,0l-0,8.592c-0,0.691 0.194,1.201 0.582,1.53c0.387,0.33 0.9,0.494 1.538,0.494Z" style="fill:#fff;fill-rule:nonzero;"/><path d="M247.729,210.107c-0,-1.583 0.882,-2.375 2.646,-2.375c1.764,-0 2.646,0.792 2.646,2.375c-0,0.755 -0.221,1.342 -0.662,1.761c-0.441,0.42 -1.102,0.63 -1.984,0.63c-1.764,0 -2.646,-0.797 -2.646,-2.391Zm5.069,22.428l-4.862,0l-0,-17.821l4.862,-0l-0,17.821Z" style="fill:#fff;fill-rule:nonzero;"/><path d="M261.772,223.593c0,1.764 0.29,3.097 0.869,4.001c0.579,0.903 1.522,1.355 2.829,1.355c1.297,-0 2.229,-0.449 2.798,-1.347c0.568,-0.898 0.853,-2.235 0.853,-4.009c-0,-1.764 -0.287,-3.088 -0.861,-3.97c-0.574,-0.882 -1.515,-1.323 -2.822,-1.323c-1.296,0 -2.231,0.439 -2.805,1.315c-0.574,0.877 -0.861,2.203 -0.861,3.978Zm12.322,-0c-0,2.901 -0.765,5.17 -2.296,6.806c-1.53,1.637 -3.66,2.455 -6.392,2.455c-1.711,-0 -3.22,-0.375 -4.527,-1.124c-1.307,-0.749 -2.311,-1.825 -3.012,-3.228c-0.702,-1.403 -1.052,-3.039 -1.052,-4.909c-0,-2.912 0.759,-5.176 2.279,-6.791c1.52,-1.615 3.656,-2.423 6.408,-2.423c1.711,0 3.22,0.372 4.527,1.116c1.307,0.744 2.311,1.812 3.013,3.204c0.701,1.392 1.052,3.023 1.052,4.894Z" style="fill:#fff;fill-rule:nonzero;"/><path d="M294.561,232.535l-4.862,0l0,-10.409c0,-1.286 -0.228,-2.25 -0.685,-2.893c-0.457,-0.643 -1.185,-0.964 -2.184,-0.964c-1.36,-0 -2.343,0.454 -2.949,1.362c-0.605,0.909 -0.908,2.415 -0.908,4.52l-0,8.384l-4.862,0l-0,-17.821l3.714,-0l0.654,2.279l0.271,0c0.541,-0.86 1.288,-1.511 2.239,-1.952c0.951,-0.441 2.033,-0.662 3.244,-0.662c2.072,0 3.645,0.561 4.718,1.682c1.074,1.121 1.61,2.739 1.61,4.854l0,11.62Z" style="fill:#fff;fill-rule:nonzero;"/><path d="M312,227.243c0,1.828 -0.635,3.22 -1.905,4.176c-1.27,0.957 -3.169,1.435 -5.699,1.435c-1.296,-0 -2.401,-0.088 -3.315,-0.263c-0.914,-0.175 -1.769,-0.433 -2.567,-0.773l0,-4.017c0.904,0.425 1.921,0.781 3.053,1.068c1.132,0.287 2.128,0.43 2.989,0.43c1.764,0 2.646,-0.51 2.646,-1.53c-0,-0.383 -0.117,-0.693 -0.351,-0.933c-0.234,-0.239 -0.637,-0.51 -1.211,-0.813c-0.574,-0.302 -1.339,-0.656 -2.296,-1.06c-1.37,-0.573 -2.377,-1.105 -3.02,-1.594c-0.643,-0.488 -1.111,-1.049 -1.403,-1.681c-0.292,-0.633 -0.438,-1.411 -0.438,-2.336c-0,-1.583 0.613,-2.808 1.841,-3.674c1.227,-0.866 2.967,-1.299 5.22,-1.299c2.147,0 4.235,0.468 6.265,1.403l-1.467,3.507c-0.892,-0.383 -1.727,-0.696 -2.502,-0.941c-0.776,-0.244 -1.568,-0.366 -2.376,-0.366c-1.434,-0 -2.151,0.387 -2.151,1.163c-0,0.436 0.231,0.813 0.693,1.132c0.462,0.319 1.474,0.792 3.037,1.419c1.392,0.563 2.412,1.089 3.06,1.578c0.648,0.489 1.127,1.052 1.435,1.689c0.308,0.638 0.462,1.398 0.462,2.28Z" style="fill:#fff;fill-rule:nonzero;"/></g></g></svg>